<mxfile host="app.diagrams.net" agent="Mozilla/5.0 (Windows NT 10.0; Win64; x64) AppleWebKit/537.36 (KHTML, like Gecko) Chrome/127.0.0.0 Safari/537.36" version="24.7.7">
  <diagram name="PÃ¡gina-1" id="Bal9dCU0w3vXgrl_aZGy">
    <mxGraphModel dx="1367" dy="737" grid="1" gridSize="10" guides="1" tooltips="1" connect="1" arrows="1" fold="1" page="0" pageScale="1" pageWidth="827" pageHeight="1169" math="0" shadow="0">
      <root>
        <mxCell id="0" />
        <mxCell id="1" parent="0" />
        <mxCell id="PQEK87zx24GCeStzfsQT-109" style="edgeStyle=orthogonalEdgeStyle;rounded=0;orthogonalLoop=1;jettySize=auto;html=1;exitX=0.5;exitY=1;exitDx=0;exitDy=0;entryX=0.5;entryY=0;entryDx=0;entryDy=0;" parent="1" source="PQEK87zx24GCeStzfsQT-102" target="PQEK87zx24GCeStzfsQT-104" edge="1">
          <mxGeometry relative="1" as="geometry" />
        </mxCell>
        <mxCell id="PQEK87zx24GCeStzfsQT-102" value="INICIO" style="rounded=1;whiteSpace=wrap;html=1;arcSize=50;" parent="1" vertex="1">
          <mxGeometry x="-140" y="160" width="120" height="30" as="geometry" />
        </mxCell>
        <mxCell id="PQEK87zx24GCeStzfsQT-110" style="edgeStyle=orthogonalEdgeStyle;rounded=0;orthogonalLoop=1;jettySize=auto;html=1;exitX=0.5;exitY=1;exitDx=0;exitDy=0;" parent="1" source="PQEK87zx24GCeStzfsQT-104" edge="1">
          <mxGeometry relative="1" as="geometry">
            <mxPoint x="-80" y="360" as="targetPoint" />
          </mxGeometry>
        </mxCell>
        <mxCell id="PQEK87zx24GCeStzfsQT-104" value="string[,] matriz;" style="rounded=0;whiteSpace=wrap;html=1;" parent="1" vertex="1">
          <mxGeometry x="-140" y="240" width="120" height="60" as="geometry" />
        </mxCell>
        <mxCell id="PQEK87zx24GCeStzfsQT-106" value="matriz = new string[5, 5]&lt;div&gt;{ &quot;-&quot;, &quot;-&quot;, &quot;-&quot;, &quot;-&quot;, &quot;-&quot; },&lt;br&gt;{ &quot;-&quot;, &quot;-&quot;, &quot;-&quot;, &quot;-&quot;, &quot;-&quot; },...&lt;/div&gt;" style="rounded=0;whiteSpace=wrap;html=1;" parent="1" vertex="1">
          <mxGeometry x="-155" y="360" width="150" height="70" as="geometry" />
        </mxCell>
        <mxCell id="PQEK87zx24GCeStzfsQT-112" style="edgeStyle=orthogonalEdgeStyle;rounded=0;orthogonalLoop=1;jettySize=auto;html=1;exitX=0.5;exitY=1;exitDx=0;exitDy=0;exitPerimeter=0;entryX=0.5;entryY=0;entryDx=0;entryDy=0;" parent="1" source="PQEK87zx24GCeStzfsQT-107" target="PQEK87zx24GCeStzfsQT-111" edge="1">
          <mxGeometry relative="1" as="geometry" />
        </mxCell>
        <mxCell id="PQEK87zx24GCeStzfsQT-107" value="" style="strokeWidth=2;html=1;shape=mxgraph.flowchart.start_2;whiteSpace=wrap;" parent="1" vertex="1">
          <mxGeometry x="-105" y="470" width="50" height="50" as="geometry" />
        </mxCell>
        <mxCell id="PQEK87zx24GCeStzfsQT-108" style="edgeStyle=orthogonalEdgeStyle;rounded=0;orthogonalLoop=1;jettySize=auto;html=1;exitX=0.5;exitY=1;exitDx=0;exitDy=0;entryX=0.5;entryY=0;entryDx=0;entryDy=0;entryPerimeter=0;" parent="1" target="PQEK87zx24GCeStzfsQT-107" edge="1">
          <mxGeometry relative="1" as="geometry">
            <mxPoint x="-80" y="430" as="sourcePoint" />
          </mxGeometry>
        </mxCell>
        <mxCell id="PQEK87zx24GCeStzfsQT-141" style="edgeStyle=orthogonalEdgeStyle;rounded=0;orthogonalLoop=1;jettySize=auto;html=1;exitX=1;exitY=0.5;exitDx=0;exitDy=0;entryX=0.5;entryY=0;entryDx=0;entryDy=0;" parent="1" source="PQEK87zx24GCeStzfsQT-111" target="PQEK87zx24GCeStzfsQT-131" edge="1">
          <mxGeometry relative="1" as="geometry" />
        </mxCell>
        <mxCell id="PQEK87zx24GCeStzfsQT-142" value="F" style="edgeLabel;html=1;align=center;verticalAlign=middle;resizable=0;points=[];" parent="PQEK87zx24GCeStzfsQT-141" vertex="1" connectable="0">
          <mxGeometry x="-0.4295" y="-1" relative="1" as="geometry">
            <mxPoint as="offset" />
          </mxGeometry>
        </mxCell>
        <mxCell id="PQEK87zx24GCeStzfsQT-111" value="i&amp;lt;3" style="rhombus;whiteSpace=wrap;html=1;strokeWidth=2;" parent="1" vertex="1">
          <mxGeometry x="-120" y="560" width="80" height="80" as="geometry" />
        </mxCell>
        <mxCell id="PQEK87zx24GCeStzfsQT-116" style="edgeStyle=orthogonalEdgeStyle;rounded=0;orthogonalLoop=1;jettySize=auto;html=1;exitX=0.5;exitY=1;exitDx=0;exitDy=0;entryX=0.5;entryY=0;entryDx=0;entryDy=0;" parent="1" source="PQEK87zx24GCeStzfsQT-113" target="PQEK87zx24GCeStzfsQT-115" edge="1">
          <mxGeometry relative="1" as="geometry" />
        </mxCell>
        <mxCell id="PQEK87zx24GCeStzfsQT-125" value="V" style="edgeLabel;html=1;align=center;verticalAlign=middle;resizable=0;points=[];" parent="PQEK87zx24GCeStzfsQT-116" vertex="1" connectable="0">
          <mxGeometry x="-0.147" y="-1" relative="1" as="geometry">
            <mxPoint x="-9" as="offset" />
          </mxGeometry>
        </mxCell>
        <mxCell id="PQEK87zx24GCeStzfsQT-113" value="j&amp;lt;5" style="rhombus;whiteSpace=wrap;html=1;strokeWidth=2;" parent="1" vertex="1">
          <mxGeometry x="-120" y="670" width="80" height="80" as="geometry" />
        </mxCell>
        <mxCell id="ahCMLixp_YzIX2k5nNPd-8" style="edgeStyle=orthogonalEdgeStyle;rounded=0;orthogonalLoop=1;jettySize=auto;html=1;exitX=1;exitY=0.5;exitDx=0;exitDy=0;entryX=0;entryY=0.5;entryDx=0;entryDy=0;" edge="1" parent="1" source="PQEK87zx24GCeStzfsQT-115" target="ahCMLixp_YzIX2k5nNPd-1">
          <mxGeometry relative="1" as="geometry" />
        </mxCell>
        <mxCell id="ahCMLixp_YzIX2k5nNPd-9" value="F" style="edgeLabel;html=1;align=center;verticalAlign=middle;resizable=0;points=[];" vertex="1" connectable="0" parent="ahCMLixp_YzIX2k5nNPd-8">
          <mxGeometry x="0.0207" y="-1" relative="1" as="geometry">
            <mxPoint as="offset" />
          </mxGeometry>
        </mxCell>
        <mxCell id="PQEK87zx24GCeStzfsQT-115" value="i = j" style="rhombus;whiteSpace=wrap;html=1;strokeWidth=2;" parent="1" vertex="1">
          <mxGeometry x="-330" y="790" width="85" height="80" as="geometry" />
        </mxCell>
        <mxCell id="PQEK87zx24GCeStzfsQT-123" style="edgeStyle=orthogonalEdgeStyle;rounded=0;orthogonalLoop=1;jettySize=auto;html=1;exitX=0.5;exitY=1;exitDx=0;exitDy=0;entryX=0.5;entryY=-0.043;entryDx=0;entryDy=0;entryPerimeter=0;" parent="1" source="PQEK87zx24GCeStzfsQT-111" target="PQEK87zx24GCeStzfsQT-113" edge="1">
          <mxGeometry relative="1" as="geometry" />
        </mxCell>
        <mxCell id="PQEK87zx24GCeStzfsQT-124" value="V" style="edgeLabel;html=1;align=center;verticalAlign=middle;resizable=0;points=[];" parent="PQEK87zx24GCeStzfsQT-123" vertex="1" connectable="0">
          <mxGeometry x="-0.2143" y="-1" relative="1" as="geometry">
            <mxPoint x="-9" as="offset" />
          </mxGeometry>
        </mxCell>
        <mxCell id="PQEK87zx24GCeStzfsQT-139" style="edgeStyle=orthogonalEdgeStyle;rounded=0;orthogonalLoop=1;jettySize=auto;html=1;exitX=0.5;exitY=0;exitDx=0;exitDy=0;exitPerimeter=0;entryX=0;entryY=0.5;entryDx=0;entryDy=0;" parent="1" source="PQEK87zx24GCeStzfsQT-127" target="PQEK87zx24GCeStzfsQT-111" edge="1">
          <mxGeometry relative="1" as="geometry" />
        </mxCell>
        <mxCell id="PQEK87zx24GCeStzfsQT-127" value="" style="strokeWidth=2;html=1;shape=mxgraph.flowchart.start_2;whiteSpace=wrap;" parent="1" vertex="1">
          <mxGeometry x="-230" y="630" width="50" height="50" as="geometry" />
        </mxCell>
        <mxCell id="PQEK87zx24GCeStzfsQT-151" style="edgeStyle=orthogonalEdgeStyle;rounded=0;orthogonalLoop=1;jettySize=auto;html=1;exitX=0.5;exitY=1;exitDx=0;exitDy=0;entryX=0.5;entryY=0;entryDx=0;entryDy=0;" parent="1" source="PQEK87zx24GCeStzfsQT-131" target="PQEK87zx24GCeStzfsQT-150" edge="1">
          <mxGeometry relative="1" as="geometry" />
        </mxCell>
        <mxCell id="PQEK87zx24GCeStzfsQT-131" value="matriz" style="shape=parallelogram;perimeter=parallelogramPerimeter;whiteSpace=wrap;html=1;fixedSize=1;strokeWidth=2;" parent="1" vertex="1">
          <mxGeometry x="80" y="640" width="120" height="60" as="geometry" />
        </mxCell>
        <mxCell id="PQEK87zx24GCeStzfsQT-133" value="matriz[i, j] = &quot;*&quot;" style="rounded=0;whiteSpace=wrap;html=1;" parent="1" vertex="1">
          <mxGeometry x="-160" y="970" width="130" height="60" as="geometry" />
        </mxCell>
        <mxCell id="PQEK87zx24GCeStzfsQT-138" style="edgeStyle=orthogonalEdgeStyle;rounded=0;orthogonalLoop=1;jettySize=auto;html=1;exitX=0;exitY=0.5;exitDx=0;exitDy=0;entryX=0.5;entryY=1;entryDx=0;entryDy=0;entryPerimeter=0;" parent="1" source="PQEK87zx24GCeStzfsQT-113" target="PQEK87zx24GCeStzfsQT-127" edge="1">
          <mxGeometry relative="1" as="geometry" />
        </mxCell>
        <mxCell id="PQEK87zx24GCeStzfsQT-140" value="F" style="edgeLabel;html=1;align=center;verticalAlign=middle;resizable=0;points=[];" parent="PQEK87zx24GCeStzfsQT-138" vertex="1" connectable="0">
          <mxGeometry x="-0.3036" relative="1" as="geometry">
            <mxPoint as="offset" />
          </mxGeometry>
        </mxCell>
        <mxCell id="PQEK87zx24GCeStzfsQT-150" value="FIN" style="rounded=1;whiteSpace=wrap;html=1;arcSize=50;" parent="1" vertex="1">
          <mxGeometry x="80" y="760" width="120" height="30" as="geometry" />
        </mxCell>
        <mxCell id="ahCMLixp_YzIX2k5nNPd-1" value="i+j = 4" style="rhombus;whiteSpace=wrap;html=1;strokeWidth=2;" vertex="1" parent="1">
          <mxGeometry x="-180" y="790" width="85" height="80" as="geometry" />
        </mxCell>
        <mxCell id="ahCMLixp_YzIX2k5nNPd-5" style="edgeStyle=orthogonalEdgeStyle;rounded=0;orthogonalLoop=1;jettySize=auto;html=1;exitX=0.5;exitY=1;exitDx=0;exitDy=0;exitPerimeter=0;entryX=0;entryY=0.5;entryDx=0;entryDy=0;" edge="1" parent="1" source="ahCMLixp_YzIX2k5nNPd-2" target="PQEK87zx24GCeStzfsQT-133">
          <mxGeometry relative="1" as="geometry" />
        </mxCell>
        <mxCell id="ahCMLixp_YzIX2k5nNPd-2" value="" style="strokeWidth=2;html=1;shape=mxgraph.flowchart.start_2;whiteSpace=wrap;" vertex="1" parent="1">
          <mxGeometry x="-295" y="930" width="50" height="50" as="geometry" />
        </mxCell>
        <mxCell id="ahCMLixp_YzIX2k5nNPd-3" style="edgeStyle=orthogonalEdgeStyle;rounded=0;orthogonalLoop=1;jettySize=auto;html=1;exitX=0.5;exitY=1;exitDx=0;exitDy=0;entryX=0.5;entryY=0;entryDx=0;entryDy=0;entryPerimeter=0;" edge="1" parent="1" source="PQEK87zx24GCeStzfsQT-115" target="ahCMLixp_YzIX2k5nNPd-2">
          <mxGeometry relative="1" as="geometry" />
        </mxCell>
        <mxCell id="ahCMLixp_YzIX2k5nNPd-4" value="V" style="edgeLabel;html=1;align=center;verticalAlign=middle;resizable=0;points=[];" vertex="1" connectable="0" parent="ahCMLixp_YzIX2k5nNPd-3">
          <mxGeometry x="-0.1759" y="-2" relative="1" as="geometry">
            <mxPoint as="offset" />
          </mxGeometry>
        </mxCell>
        <mxCell id="ahCMLixp_YzIX2k5nNPd-10" style="edgeStyle=orthogonalEdgeStyle;rounded=0;orthogonalLoop=1;jettySize=auto;html=1;exitX=0.5;exitY=1;exitDx=0;exitDy=0;entryX=0.855;entryY=0.145;entryDx=0;entryDy=0;entryPerimeter=0;" edge="1" parent="1" source="ahCMLixp_YzIX2k5nNPd-1" target="ahCMLixp_YzIX2k5nNPd-2">
          <mxGeometry relative="1" as="geometry" />
        </mxCell>
        <mxCell id="ahCMLixp_YzIX2k5nNPd-11" value="V" style="edgeLabel;html=1;align=center;verticalAlign=middle;resizable=0;points=[];" vertex="1" connectable="0" parent="ahCMLixp_YzIX2k5nNPd-10">
          <mxGeometry x="-0.2553" relative="1" as="geometry">
            <mxPoint as="offset" />
          </mxGeometry>
        </mxCell>
        <mxCell id="ahCMLixp_YzIX2k5nNPd-15" style="edgeStyle=orthogonalEdgeStyle;rounded=0;orthogonalLoop=1;jettySize=auto;html=1;exitX=0.5;exitY=0;exitDx=0;exitDy=0;exitPerimeter=0;entryX=1;entryY=0.5;entryDx=0;entryDy=0;" edge="1" parent="1" source="ahCMLixp_YzIX2k5nNPd-12" target="PQEK87zx24GCeStzfsQT-113">
          <mxGeometry relative="1" as="geometry" />
        </mxCell>
        <mxCell id="ahCMLixp_YzIX2k5nNPd-12" value="" style="strokeWidth=2;html=1;shape=mxgraph.flowchart.start_2;whiteSpace=wrap;" vertex="1" parent="1">
          <mxGeometry x="-40" y="840" width="50" height="50" as="geometry" />
        </mxCell>
        <mxCell id="ahCMLixp_YzIX2k5nNPd-13" style="edgeStyle=orthogonalEdgeStyle;rounded=0;orthogonalLoop=1;jettySize=auto;html=1;exitX=1;exitY=0.5;exitDx=0;exitDy=0;entryX=0;entryY=0.5;entryDx=0;entryDy=0;entryPerimeter=0;" edge="1" parent="1" source="ahCMLixp_YzIX2k5nNPd-1" target="ahCMLixp_YzIX2k5nNPd-12">
          <mxGeometry relative="1" as="geometry">
            <Array as="points">
              <mxPoint x="-90" y="830" />
              <mxPoint x="-90" y="865" />
            </Array>
          </mxGeometry>
        </mxCell>
        <mxCell id="ahCMLixp_YzIX2k5nNPd-14" value="F" style="edgeLabel;html=1;align=center;verticalAlign=middle;resizable=0;points=[];" vertex="1" connectable="0" parent="ahCMLixp_YzIX2k5nNPd-13">
          <mxGeometry x="-0.1706" relative="1" as="geometry">
            <mxPoint as="offset" />
          </mxGeometry>
        </mxCell>
        <mxCell id="ahCMLixp_YzIX2k5nNPd-16" style="edgeStyle=orthogonalEdgeStyle;rounded=0;orthogonalLoop=1;jettySize=auto;html=1;exitX=1;exitY=0.5;exitDx=0;exitDy=0;entryX=0.619;entryY=1.04;entryDx=0;entryDy=0;entryPerimeter=0;" edge="1" parent="1" source="PQEK87zx24GCeStzfsQT-133" target="ahCMLixp_YzIX2k5nNPd-12">
          <mxGeometry relative="1" as="geometry" />
        </mxCell>
      </root>
    </mxGraphModel>
  </diagram>
</mxfile>
